# xmcd
#
# Track frame offsets:
#	150
#	14302
#	27081
#	37431
#	47915
#	59515
#	65100
#	78796
#	91023
#	105663
#	117000
#	130460
#	141916
#	156335
#	169063
#	181773
#	196247
#	207320
#	218429
#	228631
#	239999
#	252688
#	265805
#	279830
#	292856
#	307163
#	319508
#	330776
#	344551
#
# Disc length: 4735 seconds
#
# Revision: 1
# Processed by: cddbd v1.5.2PL0 Copyright (c) Steve Scherf et al.
# Submitted via: audiograbber 1.83.01
#
DISCID=b0127d1d
DTITLE=Big Walter Horton - Classic Sides 1952 - 1956
DYEAR=2010
DGENRE=Blues
TTITLE0=Hard Hearted Woman:Alt 
TTITLE1=Back To Home To Mama:Alt
TTITLE2=Need My Baby
TTITLE3=Need a Good Time
TTITLE4=Need My Baby:Take1
TTITLE5=Jackie Boy and Little Walter-Selling My Wiskey-Incomplete
TTITLE6=Willie Nix::Midnight Showes Of Rain
TTITLE7=Willie Nix::Prison Bound Blues
TTITLE8=Willie Nix::Riding In The Moonlight
TTITLE9=Wille Nix::Let's Take a Lttle Walk
TTITLE10=Jimmie and Walter:Easy
TTITLE11=Joe Hill Louis:Hydramatic Woman
TTITLE12=Joe Hill Louis:Tigerman (King of The Jungle)
TTITLE13=Willie Nix::Seems Like a Million Years=Take 1
TTITLE14=Willie Nix::Seems Like a Million Years-Take 2
TTITLE15=Mose Vinson::Worry You Off My Mind
TTITLE16=Mose, Joe and Walter:Shine Boy
TTITLE17=Johnny Shines:Evening Shuffle-Take 1
TTITLE18=Johnny Shines:Evening Shuffle-Take 2
TTITLE19=Johnny Shines:Evening Sun
TTITLE20=Johnny Shines:No Name Blues
TTITLE21=Johnny Shines: Brutal Hearted Woman
TTITLE22=Johnny Shines:Gonna Call The Angel-Rehearsal
TTITLE23=Johnny Shines:Gonna Call The Angel-Take 3
TTITLE24=Tampa Red:Big Stars Falling Blues
TTITLE25=Tampa Red:Ramblers Blues
TTITLE26=Tampa Red:Evalena
TTITLE27=Sunnyland Slim:Highway 61
TTITLE28=Sunnyland Slim:It's Your Life
EXTD=
EXTT0=
EXTT1=
EXTT2=
EXTT3=
EXTT4=
EXTT5=
EXTT6=
EXTT7=
EXTT8=
EXTT9=
EXTT10=
EXTT11=
EXTT12=
EXTT13=
EXTT14=
EXTT15=
EXTT16=
EXTT17=
EXTT18=
EXTT19=
EXTT20=
EXTT21=
EXTT22=
EXTT23=
EXTT24=
EXTT25=
EXTT26=
EXTT27=
EXTT28=
PLAYORDER=
